<?xml version="1.0" encoding="UTF-8" standalone="no"?>
<svg
   xmlns:dc="http://purl.org/dc/elements/1.1/"
   xmlns:cc="http://creativecommons.org/ns#"
   xmlns:rdf="http://www.w3.org/1999/02/22-rdf-syntax-ns#"
   xmlns:svg="http://www.w3.org/2000/svg"
   xmlns="http://www.w3.org/2000/svg"
   width="36"
   height="36"
   viewBox="0 0 9.5249997 9.5249997"
   version="1.1"
   id="svg8">
  <defs
     id="defs2" />
  <metadata
     id="metadata5">
    <rdf:RDF>
      <cc:Work
         rdf:about="">
        <dc:format>image/svg+xml</dc:format>
        <dc:type
           rdf:resource="http://purl.org/dc/dcmitype/StillImage" />
        <dc:title></dc:title>
      </cc:Work>
    </rdf:RDF>
  </metadata>
  <path
     style="opacity:1;fill:none;fill-opacity:1;stroke:#bbbbbb;stroke-width:1.99999996;stroke-linecap:round;stroke-linejoin:miter;stroke-miterlimit:4;stroke-dasharray:none;stroke-dashoffset:0;stroke-opacity:1;paint-order:markers stroke fill"
     d="M 14.800781 1.8007812 L 14.800781 4.609375 A 13.784047 13.784047 0 0 0 10.365234 6.5332031 L 8.5742188 4.7421875 L 4.3320312 8.984375 L 6.2207031 10.873047 A 13.784047 13.784047 0 0 0 4.5058594 15.199219 L 1.8007812 15.199219 L 1.8007812 21.199219 L 4.609375 21.199219 A 13.784047 13.784047 0 0 0 6.3476562 25.353516 L 4.3320312 27.369141 L 8.5742188 31.611328 L 10.583984 29.601562 A 13.784047 13.784047 0 0 0 14.800781 31.392578 L 14.800781 34.199219 L 20.800781 34.199219 L 20.800781 31.480469 A 13.784047 13.784047 0 0 0 25.128906 29.783203 L 27.240234 31.894531 L 31.484375 27.652344 L 29.466797 25.634766 A 13.784047 13.784047 0 0 0 31.392578 21.199219 L 34.199219 21.199219 L 34.199219 15.199219 L 31.480469 15.199219 A 13.784047 13.784047 0 0 0 29.611328 10.574219 L 31.484375 8.7011719 L 27.240234 4.4589844 L 25.34375 6.3554688 A 13.784047 13.784047 0 0 0 20.800781 4.5058594 L 20.800781 1.8007812 L 14.800781 1.8007812 z "
     transform="scale(0.26458333)"
     id="path905" />
  <circle
     r="1.0583333"
     cy="4.7624998"
     cx="4.7624998"
     id="path814"
     style="opacity:1;fill:none;fill-opacity:1;stroke:#bbbbbb;stroke-width:0.66145831;stroke-linecap:round;stroke-linejoin:round;stroke-miterlimit:4;stroke-dasharray:none;stroke-dashoffset:0;stroke-opacity:1;paint-order:markers stroke fill" />
</svg>
